<svg xmlns="http://www.w3.org/2000/svg" viewBox="0 0 1200 900" role="img" aria-label="GeniusFKoai project cover">
  <rect width="1200" height="900" fill="#0b3d2e"/>
  <circle cx="930" cy="180" r="150" fill="#28c7b7" opacity=".34"/>
  <circle cx="180" cy="740" r="190" fill="#6a7bff" opacity=".28"/>
  <rect x="130" y="130" width="940" height="575" rx="46" fill="#fff4e1"/>
  <rect x="185" y="190" width="420" height="455" rx="30" fill="#123026"/>
  <path d="M240 275h260M240 345h310M240 415h220M240 485h275M240 555h180" stroke="#28c7b7" stroke-width="22" stroke-linecap="round"/>
  <rect x="650" y="210" width="330" height="86" rx="24" fill="#ff7a66"/>
  <rect x="650" y="345" width="330" height="240" rx="30" fill="#eaf2df"/>
  <path d="M720 520c38-145 120-145 158 0M705 440h190" fill="none" stroke="#0b3d2e" stroke-width="24" stroke-linecap="round"/>
  <circle cx="815" cy="452" r="84" fill="none" stroke="#28c7b7" stroke-width="18"/>
  <text x="145" y="800" fill="#fff4e1" font-family="Inter,Arial,sans-serif" font-size="68" font-weight="900">GENIUS FK OAI</text>
  <text x="150" y="842" fill="#9de8c2" font-family="Inter,Arial,sans-serif" font-size="26" font-weight="800" letter-spacing="4">PYTHON AI EXPERIMENTS</text>
</svg>
