<svg xmlns="http://www.w3.org/2000/svg" width="1280" height="820" viewBox="0 0 1280 820">
    <defs><linearGradient id="bg" x1="0" y1="0" x2="1" y2="1"><stop stop-color="#0B3D2E"/><stop offset="0.48" stop-color="#2F8F5B"/><stop offset="1" stop-color="#FFF4E1"/></linearGradient><filter id="s"><feDropShadow dx="0" dy="24" stdDeviation="24" flood-color="#05241C" flood-opacity="0.3"/></filter></defs>
    <rect width="1280" height="820" fill="url(#bg)"/><circle cx="1020" cy="160" r="150" fill="#28C7B7" opacity="0.36"/><circle cx="230" cy="640" r="120" fill="#FF7A66" opacity="0.26"/>
    <g filter="url(#s)"><rect x="130" y="110" width="1020" height="590" rx="46" fill="#FFF4E1"/><rect x="186" y="170" width="412" height="410" rx="32" fill="#123026"/><circle cx="392" cy="375" r="142" fill="none" stroke="#28C7B7" stroke-width="22"/><path d="M392 233a142 142 0 0 1 0 284a71 71 0 0 1 0-142a71 71 0 0 0 0-142Z" fill="#28C7B7"/><circle cx="392" cy="304" r="22" fill="#FFF4E1"/><circle cx="392" cy="446" r="22" fill="#123026"/><text x="660" y="300" font-family="Inter, Arial" font-size="74" font-weight="900" fill="#123026">乾坤之道</text><text x="664" y="374" font-family="Inter, Arial" font-size="32" font-weight="800" fill="#2F8F5B">AI + 周易问事工具</text><rect x="664" y="462" width="230" height="72" rx="36" fill="#FF7A66"/><text x="710" y="508" font-family="Inter, Arial" font-size="28" font-weight="900" fill="#FFF4E1">OPEN</text></g>
  </svg>