<svg xmlns="http://www.w3.org/2000/svg" width="1200" height="630" viewBox="0 0 1200 630" role="img" aria-label="唯一 personal portfolio">
  <defs>
    <linearGradient id="paper" x1="0" x2="1" y1="0" y2="1">
      <stop offset="0" stop-color="#fff4e1"/>
      <stop offset="1" stop-color="#e8f0d9"/>
    </linearGradient>
    <linearGradient id="screen" x1="0" x2="1" y1="0" y2="1">
      <stop offset="0" stop-color="#0b3d2e"/>
      <stop offset="1" stop-color="#28c7b7"/>
    </linearGradient>
    <filter id="shadow" x="-20%" y="-20%" width="140%" height="140%">
      <feDropShadow dx="0" dy="28" stdDeviation="28" flood-color="#0b3d2e" flood-opacity="0.24"/>
    </filter>
    <pattern id="grid" width="36" height="36" patternUnits="userSpaceOnUse">
      <path d="M 36 0 L 0 0 0 36" fill="none" stroke="#0b3d2e" stroke-opacity="0.08" stroke-width="1"/>
    </pattern>
  </defs>
  <rect width="1200" height="630" fill="url(#paper)"/>
  <rect width="1200" height="630" fill="url(#grid)"/>
  <circle cx="1015" cy="112" r="132" fill="#ff7a66" opacity="0.22"/>
  <circle cx="106" cy="520" r="160" fill="#28c7b7" opacity="0.16"/>
  <g transform="translate(720 120)" filter="url(#shadow)">
    <rect x="0" y="0" width="330" height="250" rx="28" fill="#123026"/>
    <rect x="30" y="28" width="270" height="166" rx="18" fill="url(#screen)"/>
    <rect x="92" y="212" width="146" height="28" rx="10" fill="#8a6f5a"/>
    <rect x="62" y="240" width="206" height="28" rx="12" fill="#123026"/>
    <path d="M88 78h112M88 114h156M88 150h92" stroke="#fff4e1" stroke-width="12" stroke-linecap="round" opacity="0.9"/>
    <circle cx="246" cy="78" r="16" fill="#ff7a66"/>
  </g>
  <g transform="translate(112 118)">
    <text x="0" y="0" fill="#2f8f5b" font-family="Inter, Arial, sans-serif" font-size="24" font-weight="800" letter-spacing="6">NATURE FUTURE YOUTH</text>
    <text x="0" y="94" fill="#123026" font-family="Inter, Arial, sans-serif" font-size="82" font-weight="900">唯一</text>
    <text x="0" y="178" fill="#123026" font-family="Noto Sans SC, Microsoft YaHei, Arial, sans-serif" font-size="58" font-weight="900">复古科技，青春自然。</text>
    <text x="0" y="246" fill="#123026" font-family="Noto Sans SC, Microsoft YaHei, Arial, sans-serif" font-size="42" font-weight="800">用设计连接真实与未来。</text>
    <text x="0" y="326" fill="#617268" font-family="Noto Sans SC, Microsoft YaHei, Arial, sans-serif" font-size="28" font-weight="600">AI 工具 / 个人品牌网页 / 移动端界面 / 设计系统</text>
  </g>
  <g transform="translate(850 430)">
    <rect width="210" height="66" rx="33" fill="#0b3d2e"/>
    <text x="105" y="43" text-anchor="middle" fill="#fff4e1" font-family="Inter, Arial, sans-serif" font-size="24" font-weight="800">weiyiai.top</text>
  </g>
</svg>
