<svg xmlns="http://www.w3.org/2000/svg" width="1280" height="820" viewBox="0 0 1280 820">
  <defs>
    <linearGradient id="bg" x1="0" y1="0" x2="1" y2="1"><stop stop-color="#0B3D2E"/><stop offset="0.55" stop-color="#2F8F5B"/><stop offset="1" stop-color="#28C7B7"/></linearGradient>
    <radialGradient id="glow" cx="70%" cy="22%" r="55%"><stop stop-color="#FFF4E1" stop-opacity="0.62"/><stop offset="1" stop-color="#FFF4E1" stop-opacity="0"/></radialGradient>
    <filter id="shadow" x="-30%" y="-30%" width="160%" height="160%"><feDropShadow dx="0" dy="24" stdDeviation="24" flood-color="#05241C" flood-opacity="0.28"/></filter>
  </defs>
  <rect width="1280" height="820" fill="url(#bg)"/>
  <rect width="1280" height="820" fill="url(#glow)"/>
  <g opacity="0.28" stroke="#FFF4E1" stroke-width="2"><path d="M0 110H1280M0 230H1280M0 350H1280M0 470H1280M0 590H1280M0 710H1280"/><path d="M140 0V820M320 0V820M500 0V820M680 0V820M860 0V820M1040 0V820M1220 0V820"/></g>
  <g filter="url(#shadow)">
    <rect x="130" y="116" width="1020" height="588" rx="42" fill="#FFF4E1"/>
    <rect x="178" y="164" width="924" height="96" rx="28" fill="#123026" opacity="0.92"/>
    <circle cx="230" cy="212" r="13" fill="#FF7A66"/><circle cx="276" cy="212" r="13" fill="#28C7B7"/><circle cx="322" cy="212" r="13" fill="#6A7BFF"/>
    <rect x="178" y="306" width="286" height="318" rx="30" fill="#E8D6B9"/>
    <rect x="500" y="306" width="602" height="58" rx="20" fill="#DAD7CE"/>
    <rect x="500" y="396" width="520" height="38" rx="19" fill="#C5D9C0"/>
    <rect x="500" y="462" width="438" height="38" rx="19" fill="#C5D9C0"/>
    <rect x="500" y="548" width="214" height="64" rx="32" fill="#FF7A66"/>
    <text x="222" y="470" font-family="Inter, Arial, sans-serif" font-size="84" font-weight="900" fill="#123026">LIB</text>
    <text x="500" y="260" font-family="Inter, Arial, sans-serif" font-size="34" font-weight="900" fill="#FFF4E1" letter-spacing="5">RESOURCE VAULT</text>
  </g>
</svg>